P2
100 100
255
213 59 86 143 246 124 232 28 200 218 144 31 12 102 42 213 158 215 163 72 239 44 11 21 180 147 236 113 224 138 219 110 208 68 76 123 198 78 171 42 153 114 168 55 171 220 210 197 26 123 103 234 59 170 106 110 68 16 247 208 72 196 212 138 105 181 72 150 73 74 48 49 193 69 79 223 214 237 230 175 232 108 132 192 45 118 32 4 94 43 101 68 176 63 77 101 6 88 241 233 
101 183 160 185 168 27 46 33 117 226 142 28 111 114 163 210 173 215 84 95 108 173 223 214 0 65 111 133 17 243 240 123 3 223 34 72 182 188 236 4 112 3 244 147 23 84 108 38 164 23 47 5 212 95 12 141 32 19 97 116 240 79 236 85 12 8 223 104 83 239 50 144 175 152 61 156 72 220 134 198 248 124 216 128 0 6 149 113 249 253 76 186 13 52 142 125 102 123 254 160 
231 125 168 206 26 233 148 191 106 208 154 186 147 79 119 88 86 109 33 138 113 70 88 221 206 106 126 253 251 128 168 120 218 47 245 197 154 62 31 133 229 249 79 8 91 215 54 19 64 91 89 225 113 56 172 103 157 184 99 221 177 94 5 121 148 203 194 126 21 222 6 117 34 31 78 186 58 94 59 59 36 151 228 125 226 25 113 224 225 231 230 35 114 95 60 42 126 25 182 255 
116 18 114 24 135 10 63 216 23 42 174 87 108 234 108 102 170 50 206 206 1 191 174 217 37 201 118 20 254 227 122 82 160 34 139 244 125 129 200 104 217 132 184 240 127 28 150 165 179 203 236 187 103 8 100 6 178 229 218 189 125 239 181 127 128 86 120 147 109 78 148 116 106 180 129 141 197 245 12 65 227 44 243 46 122 138 175 179 0 251 145 175 100 6 16 140 251 245 98 125 
189 55 73 3 177 2 48 182 166 61 118 66 36 156 10 176 162 13 56 231 249 83 194 114 25 240 51 131 251 73 112 56 215 5 144 30 150 182 237 244 138 187 123 177 93 101 89 200 71 88 166 170 132 52 150 140 6 117 197 107 103 152 203 78 33 128 16 204 1 23 226 205 217 56 196 149 118 205 9 254 209 52 162 4 137 232 53 135 145 93 111 77 38 43 154 71 5 111 114 21 
218 110 52 203 251 124 249 246 86 29 66 218 169 105 212 254 241 181 198 235 36 111 216 48 34 74 6 169 233 155 93 1 9 3 14 118 89 79 193 220 231 156 43 229 53 191 227 159 162 228 113 62 38 116 168 28 66 61 55 254 55 205 122 153 119 30 150 85 89 121 196 80 16 148 237 166 222 254 120 240 133 188 96 10 255 53 137 26 110 75 84 205 86 203 113 228 10 7 244 240 
100 193 171 89 185 75 175 165 12 237 58 247 130 135 184 214 22 119 33 48 142 189 133 159 174 93 233 234 171 5 81 207 227 240 30 0 202 10 154 107 40 85 210 190 130 139 164 43 213 5 24 105 139 219 244 251 167 77 138 180 67 98 213 123 60 206 196 76 44 25 214 127 152 254 231 77 107 18 74 144 163 166 23 202 75 237 198 105 169 98 253 73 184 100 167 123 217 35 70 69 
197 192 138 105 198 176 34 170 39 98 210 141 232 33 198 93 183 59 38 113 28 99 234 178 244 84 240 87 32 183 75 243 126 71 223 178 24 51 43 223 156 195 101 170 13 63 204 41 183 13 58 156 104 25 248 245 221 122 215 152 123 82 124 95 64 245 252 225 248 78 169 244 180 127 43 112 120 200 210 54 52 170 42 113 245 76 208 28 93 29 133 197 81 187 129 144 241 20 9 126 
205 203 68 239 85 221 75 102 146 132 127 141 20 91 31 121 44 195 26 46 91 134 33 102 9 187 1 142 122 234 48 18 255 112 165 218 105 36 237 21 195 58 124 53 65 104 65 58 115 72 125 52 190 254 212 3 13 26 165 98 196 192 151 36 246 6 116 188 215 157 59 3 116 180 112 54 161 25 183 62 51 161 161 53 112 203 198 37 196 160 20 19 182 221 102 60 25 84 88 158 
135 144 90 186 11 184 4 153 30 181 170 13 213 151 47 57 88 53 30 83 150 20 246 169 55 139 198 226 210 36 250 135 97 68 117 194 242 15 224 101 159 134 65 45 191 242 207 73 94 134 5 22 235 64 245 45 49 16 223 159 137 60 2 127 77 3 178 161 143 129 171 162 11 210 165 40 91 122 40 107 106 4 162 245 43 234 183 166 139 181 216 250 164 101 23 143 51 19 57 225 
76 213 13 88 76 226 253 134 16 247 227 169 100 249 30 120 190 219 228 28 45 194 217 124 140 103 225 189 251 189 51 9 144 213 176 144 73 254 114 205 69 48 167 11 52 171 160 39 13 219 37 151 255 127 12 171 169 10 10 19 141 73 200 162 194 71 57 82 234 110 44 135 100 238 29 152 195 99 81 139 126 178 34 32 232 51 151 18 99 22 55 153 209 255 31 51 76 244 83 164 
23 121 82 59 212 249 237 88 247 104 88 43 122 39 130 190 211 40 162 54 35 82 18 86 176 39 97 68 149 164 164 144 184 104 12 114 253 25 190 83 185 4 222 143 106 3 237 122 165 164 86 161 79 135 67 82 16 8 181 94 5 30 212 29 181 131 132 179 71 22 56 146 242 125 11 64 180 14 13 91 71 240 218 218 81 125 114 149 219 235 68 8 4 44 140 83 246 18 223 134 
26 183 4 28 136 28 6 197 194 16 135 105 161 84 87 105 143 252 70 40 247 24 54 202 250 148 116 59 100 93 72 115 222 197 202 249 101 41 248 166 250 209 6 172 155 23 245 215 115 204 103 18 78 215 178 44 79 31 51 220 229 172 229 3 251 9 49 50 111 236 8 108 198 24 48 45 30 131 219 170 99 180 126 91 198 112 224 183 107 149 114 63 98 70 222 189 217 72 226 206 
144 172 95 158 141 175 173 243 16 222 50 109 201 126 51 12 73 42 233 242 183 190 216 106 196 116 92 42 224 77 133 213 175 179 36 196 182 92 38 6 91 113 33 165 12 240 45 43 190 79 245 101 153 98 14 103 241 126 135 208 121 223 193 80 179 71 128 103 171 232 67 111 229 132 209 220 148 211 21 195 12 37 43 153 122 72 187 62 211 172 134 57 10 197 62 70 134 177 155 14 
211 27 171 53 152 95 106 153 201 238 146 217 29 245 180 21 195 57 136 245 81 69 130 237 253 200 165 191 15 57 156 65 150 188 7 96 90 73 19 101 19 11 77 119 216 6 184 97 218 253 28 150 82 147 162 114 184 176 158 195 54 38 172 136 92 149 254 249 21 140 244 199 218 240 237 164 37 162 94 6 41 92 33 40 192 220 15 82 165 69 208 91 227 194 242 108 141 108 57 6 
176 110 54 71 134 102 27 105 236 15 206 139 22 30 60 180 130 105 240 21 42 78 228 142 254 83 151 116 145 10 95 146 19 56 1 109 127 53 127 205 21 150 49 120 11 10 23 65 128 130 110 65 177 149 129 101 111 34 194 41 209 55 25 162 38 49 124 194 45 37 192 216 137 127 175 86 111 233 90 215 162 111 177 96 161 224 80 230 30 119 156 17 179 186 15 64 209 163 208 205 
249 254 135 146 46 18 111 172 170 131 173 126 208 119 224 249 98 248 249 27 244 154 77 182 160 93 232 115 252 212 36 22 73 135 123 4 237 151 154 2 36 160 182 63 242 227 35 149 92 165 35 12 215 210 252 160 1 230 77 68 143 13 161 38 134 137 69 53 175 85 87 225 68 8 32 33 240 251 164 187 247 174 118 192 176 104 209 85 60 30 229 185 114 150 111 132 25 205 140 45 
90 149 207 207 116 130 145 45 178 7 136 243 155 221 156 63 104 164 245 95 187 205 89 221 141 183 181 184 104 24 249 245 215 159 41 86 28 216 177 106 32 79 250 198 176 248 58 145 229 206 144 70 228 187 80 181 200 184 156 75 221 53 52 148 15 187 142 254 162 208 42 224 35 27 32 186 158 200 251 191 17 46 201 144 33 175 115 75 12 224 75 196 223 234 228 18 233 49 38 78 
111 51 161 151 161 178 34 89 205 21 132 207 211 12 201 199 217 115 106 166 63 121 234 171 213 1 177 120 76 72 24 206 235 200 193 152 131 93 41 43 165 167 128 204 18 175 184 114 115 205 220 206 75 201 163 137 41 64 69 205 34 73 141 6 126 89 47 234 178 100 93 183 143 69 149 187 184 96 189 26 89 134 113 204 22 25 156 229 66 112 69 25 82 124 172 127 145 172 150 149 
21 15 229 133 241 185 107 166 172 103 0 70 242 102 210 167 138 176 253 71 136 89 92 100 196 41 158 192 138 139 156 162 147 165 233 29 52 201 171 148 214 12 170 126 166 52 167 103 142 216 239 55 99 194 48 183 96 152 138 81 211 188 233 24 22 112 147 8 193 62 253 142 30 151 227 75 221 186 151 21 9 215 154 62 59 116 105 25 14 17 153 187 210 7 38 255 133 182 9 205 
255 223 8 155 108 79 210 51 255 190 75 183 229 246 37 227 120 56 176 147 182 219 243 133 241 54 251 95 199 192 115 244 85 118 117 195 168 125 160 192 116 9 107 88 9 125 184 175 130 212 173 44 64 63 191 55 151 15 15 65 198 214 250 5 45 201 235 14 186 105 116 122 165 99 158 253 93 180 125 41 194 16 7 236 148 133 38 90 43 92 11 172 105 64 198 137 238 162 19 133 
138 91 119 232 248 147 140 176 201 226 153 217 158 182 102 219 154 245 79 117 23 227 150 169 152 69 254 8 255 199 149 47 1 155 209 146 214 99 222 120 53 81 55 71 127 140 116 2 59 214 98 16 194 109 89 63 59 46 202 8 202 0 24 21 5 112 169 0 168 153 60 94 137 71 125 252 206 92 214 104 93 114 137 179 148 193 252 118 59 67 83 19 182 23 68 61 127 36 39 187 
212 254 77 104 173 13 147 127 241 236 55 21 233 15 234 231 245 169 38 86 126 204 193 176 43 210 195 177 88 253 117 74 196 90 186 160 137 235 162 88 82 4 61 18 200 246 173 51 77 235 127 232 237 17 60 104 145 251 58 121 118 68 184 53 222 117 42 14 6 40 210 16 87 110 144 102 224 111 251 32 4 80 176 51 112 90 235 193 81 88 84 155 195 64 27 5 140 22 70 185 
10 14 74 46 106 241 217 25 27 193 252 53 130 160 97 63 240 238 246 69 209 178 183 33 38 59 195 65 53 7 182 169 126 227 51 58 242 84 192 52 96 54 215 250 48 163 57 21 83 22 134 124 122 208 11 18 134 123 219 113 64 14 33 230 75 240 180 188 87 96 236 190 150 20 181 247 116 32 225 188 131 26 195 237 180 124 249 119 205 73 137 29 23 244 48 121 87 125 246 61 
0 221 6 191 167 164 189 181 183 225 1 60 102 66 212 32 232 124 40 87 226 237 245 206 33 128 138 105 140 210 33 69 87 147 181 64 122 46 24 187 98 172 64 158 230 213 225 157 124 153 66 186 173 175 73 11 198 124 215 190 209 54 92 90 195 73 162 71 247 250 237 145 219 74 70 233 234 29 20 237 218 155 236 169 22 215 170 93 110 174 193 128 13 243 207 6 172 201 117 223 
6 79 101 192 140 131 188 37 89 96 147 151 104 74 208 42 5 172 66 75 129 224 238 184 42 79 163 208 122 217 213 13 143 119 168 207 219 30 74 91 29 231 134 35 144 110 150 72 98 119 57 93 103 216 6 110 15 147 0 64 150 66 106 219 122 184 221 70 50 229 151 146 29 250 22 25 185 206 230 8 21 128 183 27 137 95 178 168 164 6 13 223 102 203 221 80 175 91 44 174 
248 158 76 210 65 225 106 2 74 51 102 116 6 15 227 14 77 60 154 112 209 242 243 52 83 62 214 116 23 167 190 141 149 18 16 35 113 227 172 102 173 101 193 147 30 108 229 189 28 57 101 205 126 157 217 200 198 98 252 80 152 230 187 110 113 9 140 142 149 73 1 203 73 44 157 109 67 223 230 176 95 28 187 200 147 80 232 33 37 254 248 235 27 94 75 214 244 75 104 26 
149 92 147 187 134 80 163 11 94 175 14 112 124 174 70 103 248 83 72 201 217 219 113 78 137 89 148 79 134 159 75 208 89 97 138 189 204 152 122 116 88 37 132 132 221 183 171 180 150 238 32 72 75 193 16 127 200 29 193 96 143 206 221 182 202 163 14 90 131 205 202 176 23 137 113 116 232 255 149 183 83 105 152 36 226 119 125 136 194 242 248 146 119 161 199 215 206 105 69 24 
19 183 61 200 133 35 252 201 7 77 170 119 24 11 218 231 5 199 95 112 93 34 97 107 166 221 177 56 78 250 90 130 229 30 121 195 137 58 78 10 161 106 146 252 206 30 11 24 30 119 95 64 131 244 38 117 132 77 66 227 51 159 115 29 95 202 38 169 10 23 142 191 29 31 246 78 91 232 86 64 148 80 36 255 27 175 108 56 122 184 35 223 99 160 185 115 234 131 237 131 
242 3 229 113 229 50 126 118 169 178 225 230 207 26 87 181 13 156 94 59 238 229 252 52 200 69 83 11 239 16 118 88 40 68 123 167 96 107 209 123 158 195 212 146 55 157 159 107 65 3 33 6 73 157 116 235 73 214 105 109 212 58 104 48 148 34 119 233 246 148 152 101 36 101 88 205 52 160 165 40 158 44 224 33 244 168 51 10 205 154 37 34 3 201 107 19 30 231 1 191 
15 115 122 60 34 222 149 29 46 237 16 244 14 94 193 21 85 206 226 156 62 218 173 177 226 133 41 10 174 217 67 178 19 210 32 9 127 119 178 13 141 74 137 215 121 226 236 104 214 215 41 166 131 222 41 162 219 53 71 28 44 66 98 73 106 119 49 212 37 120 215 34 185 128 184 218 197 1 138 165 222 138 175 50 132 238 194 126 84 163 112 82 128 104 137 13 125 42 86 163 
251 41 46 230 26 87 68 4 219 0 195 81 212 176 29 71 41 82 159 203 183 149 74 178 146 148 222 132 178 181 55 128 233 209 220 224 24 150 214 94 163 42 190 246 34 17 26 238 90 81 234 20 107 212 125 71 74 13 137 56 114 223 123 114 215 186 12 152 28 7 21 238 5 198 164 27 47 117 79 46 255 52 200 222 216 40 178 22 145 29 179 177 38 111 203 130 173 42 228 151 
140 112 170 190 234 27 156 73 99 164 99 15 0 68 99 179 102 88 145 41 77 10 132 117 52 46 206 182 83 106 140 100 210 154 60 214 56 114 207 7 38 101 255 153 69 198 227 26 125 46 193 135 104 29 35 14 6 228 45 24 178 194 45 135 84 77 116 60 217 19 101 221 224 130 203 213 182 5 112 156 133 112 235 56 200 158 185 4 2 88 143 176 176 121 239 137 124 80 250 250 
179 70 133 83 249 193 110 202 60 72 48 192 230 231 182 69 87 213 109 221 146 84 157 132 54 217 249 241 177 109 117 24 176 83 87 242 217 235 145 128 189 214 78 14 8 91 203 181 251 9 104 35 29 158 255 159 45 40 116 71 90 106 141 156 183 129 4 65 233 200 219 0 34 248 240 14 84 148 209 144 158 132 209 93 11 255 92 6 123 175 135 20 225 16 235 144 175 26 180 201 
143 31 245 81 84 246 63 73 48 89 113 222 39 140 209 20 195 63 92 195 10 182 91 222 173 39 55 251 130 100 142 16 52 185 134 123 58 24 98 70 5 115 83 168 126 106 144 207 175 38 168 220 192 133 23 48 38 119 24 230 23 168 187 160 65 95 55 135 187 166 129 141 60 171 30 246 139 102 53 22 54 124 232 92 135 99 228 143 180 199 55 88 86 45 99 1 28 215 176 124 
193 231 198 167 59 199 122 206 54 199 233 113 192 8 195 72 70 154 234 133 191 225 60 89 39 61 172 185 47 233 152 98 51 36 87 27 108 143 17 58 103 215 211 105 181 147 226 170 229 112 80 153 175 139 206 241 114 30 193 82 225 95 152 66 248 165 92 113 54 205 136 65 6 220 28 133 126 229 237 137 75 46 63 84 236 142 149 41 31 25 200 84 153 0 87 35 250 178 254 50 
0 71 138 235 251 31 235 78 129 198 139 238 98 27 222 60 222 178 59 8 22 118 234 69 193 147 126 13 32 147 100 229 52 198 189 65 46 232 105 75 39 254 100 224 17 129 86 219 238 190 101 151 64 125 78 175 192 225 180 8 82 143 184 18 57 18 201 74 135 127 189 4 216 84 33 103 64 166 206 185 130 124 189 221 131 118 29 25 254 178 162 29 120 239 31 65 119 243 87 15 
239 43 17 1 253 146 106 139 215 211 111 92 4 178 235 226 200 168 126 12 227 205 239 83 123 252 195 251 86 49 15 150 76 53 138 203 252 126 230 85 191 80 97 78 218 41 151 174 248 92 154 15 215 252 68 179 65 251 204 199 62 147 152 233 136 229 82 233 63 225 62 204 222 101 203 23 110 169 104 74 249 218 152 170 66 5 73 67 179 55 98 46 151 227 155 16 137 131 145 227 
44 130 26 249 29 90 213 61 38 250 6 189 181 106 161 101 140 177 165 13 185 247 171 183 201 231 191 17 57 87 110 66 45 43 32 226 100 118 169 74 108 227 26 15 18 84 221 201 29 200 1 25 60 130 210 234 60 104 173 246 126 169 18 140 169 162 251 145 156 3 108 198 167 45 76 72 250 223 115 93 93 18 4 109 34 33 253 79 88 45 12 199 66 192 165 76 8 176 81 14 
171 71 73 55 62 160 67 113 84 84 140 169 181 87 87 19 85 28 85 111 134 0 133 138 108 229 78 7 177 29 203 95 123 139 102 39 155 4 168 146 8 251 79 54 139 94 161 19 187 187 1 209 44 167 192 73 228 96 53 71 14 177 16 142 243 22 235 29 37 33 34 177 253 28 229 139 72 240 139 115 62 70 41 253 180 235 100 11 146 121 131 147 134 52 201 163 250 50 1 162 
68 191 90 216 29 255 117 49 85 213 189 61 197 4 247 124 132 148 25 217 94 120 96 116 129 109 157 164 122 37 208 61 96 165 247 14 79 236 40 174 24 213 222 121 55 62 145 213 6 106 137 186 48 164 243 113 103 37 53 155 90 56 127 118 225 156 162 92 123 42 38 140 251 183 150 45 126 60 31 144 160 53 90 182 240 70 101 18 161 36 56 143 130 179 54 213 48 108 3 200 
137 2 150 82 101 69 143 99 129 70 202 54 188 188 52 213 134 166 221 223 149 50 79 137 217 222 31 227 179 221 193 93 98 188 160 137 190 69 110 34 40 164 185 78 193 200 192 32 218 12 132 97 172 23 34 144 73 0 95 39 211 182 133 32 236 160 110 184 109 128 222 115 91 157 22 96 23 33 165 158 212 192 130 31 78 154 88 172 186 99 33 41 248 193 246 27 16 245 37 103 
220 190 133 92 2 122 6 244 38 143 140 87 93 9 254 161 228 133 153 229 18 77 139 114 139 196 189 85 183 5 240 31 114 199 11 232 5 132 179 147 85 218 29 84 91 49 32 112 212 158 143 68 58 7 197 137 242 136 129 214 199 22 245 102 151 98 25 28 76 0 69 196 14 201 255 156 184 126 18 19 136 174 224 208 26 217 248 246 151 213 235 167 42 113 92 199 179 89 87 2 
192 57 228 16 185 37 219 55 90 57 249 18 102 124 52 146 154 10 76 66 224 115 163 207 198 94 78 199 46 114 108 161 71 118 182 254 188 182 88 46 43 169 0 246 216 210 52 144 163 228 232 244 55 41 80 86 133 36 243 240 113 118 1 1 202 254 230 22 128 68 31 136 17 24 76 70 69 118 135 212 27 173 245 148 3 192 154 69 77 13 114 201 226 44 189 43 50 26 154 224 
109 151 215 77 246 204 8 138 21 49 214 102 236 174 154 171 172 1 43 163 8 95 243 218 234 94 73 38 101 18 251 229 236 118 41 134 193 14 90 75 175 203 201 76 252 47 0 192 154 177 168 120 157 99 160 172 242 210 76 250 77 46 48 172 99 171 189 58 90 38 106 15 125 12 7 144 53 120 78 91 52 155 188 204 244 97 159 198 96 81 111 176 209 182 97 189 59 252 58 113 
169 92 97 97 230 188 57 58 125 208 173 4 228 134 13 168 245 161 24 176 157 163 90 79 216 241 184 161 221 50 73 51 149 248 103 198 82 162 6 80 190 129 69 68 18 57 67 19 136 106 52 243 18 144 180 223 76 40 90 223 175 21 145 137 8 65 163 200 41 135 23 220 223 209 61 162 36 125 7 22 149 6 26 22 38 224 37 105 20 163 114 255 27 108 187 122 234 128 62 238 
212 51 19 229 200 9 190 167 131 26 1 184 4 187 244 161 64 90 87 243 24 170 38 138 136 1 110 15 33 254 96 192 185 110 163 116 97 112 239 217 151 216 216 1 189 210 231 29 202 200 239 136 64 133 158 7 94 154 83 79 150 0 47 199 65 0 111 144 146 80 249 195 200 127 52 249 168 146 29 17 43 240 152 45 116 123 3 254 4 0 17 66 49 209 214 138 212 176 30 65 
67 239 3 234 127 214 191 169 174 69 190 5 203 154 248 236 156 213 125 247 228 251 81 240 219 184 123 146 219 71 89 143 92 151 54 216 34 166 30 24 181 49 241 129 18 144 183 204 160 220 51 123 101 82 187 98 122 252 71 101 188 142 199 131 197 142 186 20 27 183 252 78 166 160 223 14 104 153 126 214 104 213 78 17 239 207 246 159 247 230 97 141 225 74 17 36 102 28 182 38 
208 209 255 84 106 216 176 51 53 124 245 16 220 11 245 66 234 56 171 175 59 190 241 146 176 70 222 123 39 139 82 151 171 188 207 49 231 34 139 121 225 2 195 132 229 197 81 149 190 86 129 155 45 204 33 250 147 73 215 142 241 33 184 237 18 63 21 237 7 197 152 103 212 243 144 58 105 74 138 146 212 241 33 106 180 87 23 79 241 26 164 103 170 40 13 179 111 36 121 145 
177 11 1 133 118 23 6 56 81 227 199 193 146 209 50 36 186 169 251 24 50 130 236 14 60 230 124 110 41 49 162 36 205 58 235 91 48 53 203 136 134 216 48 171 97 189 93 210 38 8 246 222 189 73 87 137 141 164 42 168 168 47 57 174 66 155 128 114 104 23 135 50 239 113 239 215 170 126 74 122 224 189 48 40 252 55 143 226 135 169 66 232 84 229 229 56 250 118 232 81 
135 131 227 60 115 246 41 205 211 220 160 39 207 15 208 126 86 19 57 33 17 63 234 183 149 29 79 200 220 19 75 128 246 66 134 176 252 174 9 22 70 159 8 222 221 72 254 104 51 167 0 76 18 172 74 156 211 157 31 105 208 185 208 136 28 28 26 149 113 226 180 57 105 143 41 169 241 175 228 111 251 185 137 109 116 57 140 31 118 46 252 32 190 177 159 240 96 216 68 244 
185 218 85 190 166 116 172 143 243 139 167 26 23 18 127 139 30 46 213 200 230 152 142 247 142 68 225 64 44 64 174 212 190 222 18 46 100 21 56 153 204 37 114 242 237 122 136 175 248 211 80 32 139 163 126 245 40 183 190 1 231 26 0 61 103 54 19 16 10 59 118 205 98 197 107 126 230 185 76 224 234 111 34 174 206 23 116 34 117 85 93 186 248 47 225 56 156 41 129 236 
2 174 13 53 158 178 186 70 106 150 117 38 220 76 118 250 21 187 23 135 91 101 231 243 201 71 250 203 69 0 132 75 179 54 166 217 104 54 136 210 226 218 168 137 182 176 114 141 201 88 16 43 195 46 131 52 193 42 243 1 75 4 67 179 133 155 233 191 169 151 253 171 180 77 143 18 96 228 62 238 83 182 6 23 150 249 90 6 72 159 115 223 148 122 231 175 224 164 125 241 
71 30 64 88 74 183 210 200 194 48 3 165 25 157 162 81 186 14 148 240 198 111 34 111 9 173 151 196 44 27 11 119 44 19 122 97 11 224 25 180 197 219 233 59 133 213 140 227 25 181 88 123 163 98 170 184 146 228 124 124 209 198 58 87 62 190 210 79 94 144 11 220 79 47 23 55 254 37 107 212 154 54 206 45 72 64 176 194 24 102 190 94 55 109 179 155 103 102 113 168 
173 142 80 74 73 114 182 33 235 87 232 45 36 216 31 145 27 209 223 150 129 124 132 242 199 218 30 75 142 85 126 247 95 163 145 6 156 237 237 130 182 49 170 245 161 229 115 44 133 221 220 59 183 110 246 193 231 212 34 109 155 209 34 193 220 151 118 22 46 232 229 225 198 124 90 52 248 163 241 136 239 43 82 185 160 132 62 82 0 34 103 11 117 35 133 144 139 50 166 132 
233 171 197 198 131 255 159 243 17 91 194 44 191 132 231 25 38 6 129 45 123 141 150 44 6 147 206 235 214 59 202 88 180 125 182 185 85 132 34 57 212 84 13 160 95 176 67 98 48 59 234 219 190 221 87 217 53 104 38 91 36 124 137 152 118 168 224 67 164 209 138 14 41 216 251 109 53 119 15 156 165 108 158 227 51 218 81 25 234 236 180 103 222 187 140 78 25 114 106 235 
216 176 128 122 248 45 180 26 171 161 243 207 111 225 200 205 65 75 45 244 13 101 161 151 106 193 122 129 132 36 125 58 89 230 172 134 41 156 95 47 39 245 150 4 117 226 142 34 79 250 146 114 135 28 20 115 49 86 252 58 159 5 64 183 144 62 181 57 164 109 37 52 19 60 161 67 159 183 24 105 199 173 41 156 62 89 54 132 155 65 186 128 82 95 220 234 227 127 68 156 
81 232 45 178 214 62 187 146 213 167 143 42 16 45 154 121 27 100 46 81 17 76 91 91 133 120 120 91 187 112 0 181 24 85 160 49 216 195 141 251 255 251 27 238 146 66 140 17 6 132 37 98 249 61 136 211 32 154 61 147 129 219 146 142 226 251 165 55 129 147 191 133 5 252 227 59 181 179 167 109 232 2 67 64 188 221 232 241 11 11 83 25 155 134 161 47 149 35 101 78 
57 117 248 56 207 239 16 156 225 74 148 148 167 38 175 114 195 244 36 188 47 19 225 117 115 57 214 158 27 21 7 253 104 51 224 29 70 31 201 150 126 205 251 142 45 56 146 128 117 74 227 61 114 252 15 48 111 190 217 229 90 25 180 205 118 147 32 59 80 211 55 179 244 5 131 100 96 128 19 243 57 166 206 122 189 12 7 209 249 220 81 12 60 119 148 68 203 94 96 155 
214 82 130 122 171 186 213 29 42 70 91 82 121 210 140 125 249 141 238 224 120 90 230 25 168 118 206 236 207 91 71 67 193 229 209 115 12 180 153 193 114 209 145 37 156 148 198 78 12 197 239 229 84 1 65 22 133 95 139 77 235 84 126 61 247 212 76 39 125 186 118 89 32 106 222 245 10 181 36 243 224 253 47 105 244 153 10 10 189 122 242 237 133 15 173 145 98 103 29 29 
103 150 20 236 27 89 106 72 42 253 77 118 91 124 217 244 194 234 232 254 55 15 44 86 7 86 123 69 233 230 105 221 51 14 28 130 77 230 92 169 102 51 234 222 103 140 19 12 37 187 132 249 219 102 96 16 215 239 144 99 115 152 91 240 71 235 54 35 157 89 221 157 37 33 162 52 235 115 5 59 133 213 134 3 145 199 183 161 95 162 149 242 234 198 24 221 13 244 9 216 
243 249 20 174 208 141 30 127 206 122 217 8 75 1 149 36 65 121 89 147 5 57 50 251 53 184 203 44 235 243 62 168 55 15 42 99 205 64 6 199 250 233 180 251 221 5 89 101 211 197 109 110 51 122 14 133 60 182 154 102 75 174 124 156 81 227 70 68 133 2 1 21 86 8 192 157 164 169 124 205 47 243 27 184 80 47 210 152 231 8 173 18 148 239 108 187 42 189 145 218 
96 154 183 112 202 30 37 117 8 183 163 101 62 75 141 251 196 30 37 60 30 245 45 184 46 124 182 13 168 229 51 172 199 210 209 224 62 117 11 12 114 245 120 52 230 20 232 190 246 16 176 122 201 198 66 225 129 29 1 154 180 162 83 67 32 112 247 109 154 83 153 232 72 45 163 66 16 152 87 138 80 204 27 89 208 196 19 20 245 156 245 107 55 62 25 37 212 61 208 32 
198 1 247 147 243 37 204 151 165 29 0 230 57 28 13 226 27 52 201 217 242 192 59 135 23 255 174 220 76 1 5 0 171 199 78 149 220 166 154 60 139 236 11 90 25 198 46 28 146 97 139 184 224 80 123 246 62 46 58 240 239 132 61 21 47 236 198 116 106 119 181 56 172 77 161 110 89 147 39 15 30 146 130 58 39 21 92 193 146 18 228 231 36 141 33 104 59 186 134 186 
4 98 198 147 238 135 234 171 95 75 160 195 165 14 214 230 47 215 135 239 253 245 213 75 85 230 89 0 184 119 183 238 20 45 117 85 59 228 13 152 148 182 64 65 16 30 174 68 96 93 164 136 102 29 53 163 233 85 140 230 140 108 128 153 1 161 105 135 122 170 50 190 96 155 176 144 72 10 50 221 35 113 90 149 180 211 43 120 72 163 98 32 161 225 10 66 51 134 75 49 
147 34 131 163 44 196 152 184 52 26 140 56 222 217 81 28 209 95 223 81 218 152 133 184 221 30 124 113 18 164 194 89 109 148 37 209 94 247 158 194 187 150 225 222 251 94 50 40 164 9 122 182 6 251 154 181 42 106 255 175 6 194 119 9 242 72 67 208 96 253 109 181 199 197 92 85 224 200 165 190 21 25 36 47 55 150 76 32 111 15 187 130 119 170 17 72 9 133 3 38 
152 158 171 153 63 240 34 39 247 223 81 232 12 214 4 69 210 47 64 0 148 83 215 117 205 34 57 31 154 149 141 93 112 161 1 118 10 95 94 219 166 107 223 173 113 138 67 127 64 143 33 93 128 127 124 13 112 243 151 148 142 190 10 253 78 208 22 85 18 90 54 250 87 51 246 22 44 123 8 102 233 126 149 64 29 218 209 212 200 229 210 178 203 73 162 140 156 241 147 61 
62 41 210 11 113 0 63 41 38 241 124 128 53 195 68 176 82 174 255 81 62 191 147 126 58 126 124 148 193 205 31 55 118 19 91 150 92 154 98 240 69 54 199 88 141 40 216 181 7 65 45 12 56 75 129 2 195 164 193 156 37 44 99 74 162 97 249 36 127 201 6 115 114 145 16 115 87 115 246 87 36 221 132 142 31 79 69 69 79 4 152 45 48 214 6 126 171 92 211 60 
68 85 211 185 150 73 127 91 252 109 72 159 146 200 44 94 92 148 134 79 196 231 42 206 74 146 177 219 119 73 18 102 18 5 115 202 151 167 62 151 229 222 118 148 55 74 76 4 85 226 237 41 12 147 159 7 219 41 12 106 239 115 221 42 82 162 139 174 95 243 114 175 121 142 40 62 252 173 12 9 116 0 34 218 13 81 30 96 75 100 190 50 251 33 93 17 106 244 198 109 
212 117 70 43 31 68 5 166 201 55 149 244 32 184 204 106 177 104 207 98 2 9 112 59 132 154 186 162 195 195 201 16 224 116 224 148 65 202 181 211 135 50 15 77 192 208 147 226 222 34 219 148 105 224 201 142 112 39 27 102 197 215 63 159 106 58 104 114 70 230 225 205 28 228 162 157 190 17 33 73 126 197 106 126 230 179 114 50 169 16 168 227 216 248 206 32 89 13 7 75 
150 97 49 157 114 150 116 106 129 67 27 167 120 154 163 169 226 72 18 47 21 157 139 163 101 237 30 157 151 54 228 169 153 2 76 74 112 143 176 63 113 46 44 4 180 233 175 156 198 104 82 142 158 22 233 46 210 127 216 29 11 252 41 19 183 147 219 220 253 25 124 161 246 153 250 105 26 250 182 223 248 219 218 86 43 194 237 10 137 118 164 169 157 169 251 18 88 218 133 92 
3 122 0 26 120 78 45 221 146 20 223 251 226 105 81 143 163 234 188 193 240 154 41 72 53 132 132 45 228 161 243 209 105 251 102 49 95 19 110 105 4 128 82 119 234 218 96 66 240 214 129 219 113 178 16 2 187 212 236 236 195 174 204 67 23 228 211 111 19 177 101 20 88 135 56 219 122 245 174 118 249 206 98 222 115 136 0 223 23 226 91 215 93 201 185 187 244 125 113 90 
252 240 185 230 118 111 185 176 249 131 228 51 166 26 135 84 94 226 162 232 50 246 248 119 26 188 98 63 234 13 104 124 131 151 18 231 70 128 252 125 207 76 169 129 223 1 25 196 153 137 158 36 242 87 235 83 99 78 110 218 224 222 224 93 14 112 26 32 177 4 42 202 99 24 166 105 140 204 64 183 142 69 155 156 64 79 93 243 158 70 134 145 191 54 0 131 7 65 118 152 
157 65 106 32 31 175 130 242 149 196 35 180 164 221 65 86 5 36 118 224 53 109 81 110 109 94 240 120 212 211 209 87 244 128 229 5 106 217 230 37 226 46 235 67 67 27 58 92 39 31 93 161 142 139 120 120 211 158 217 196 223 238 209 102 156 9 194 4 172 93 122 8 92 85 191 236 211 197 43 182 144 136 59 190 19 104 162 183 217 61 227 237 142 89 30 204 127 36 42 162 
78 4 229 166 233 128 200 56 188 164 191 106 38 167 55 192 42 203 120 52 104 133 53 125 75 222 97 145 131 25 69 105 182 150 208 4 114 246 46 174 103 128 156 130 211 195 122 46 61 125 161 246 102 188 248 252 125 67 66 190 146 47 58 224 77 219 226 44 224 0 24 215 58 33 106 5 125 38 43 144 179 71 198 5 189 43 83 240 139 81 104 90 147 176 50 143 123 154 196 37 
25 230 174 57 158 78 210 252 14 22 115 111 244 239 143 106 83 26 111 227 223 208 124 109 109 226 84 255 169 157 29 247 7 240 26 94 252 209 123 110 109 220 122 81 104 61 163 44 18 209 115 92 224 136 37 0 10 14 201 183 61 170 150 171 145 102 129 206 186 112 15 99 130 192 103 193 119 251 171 83 224 151 136 228 246 65 12 25 81 123 184 63 161 138 215 71 158 143 14 15 
66 244 51 228 53 9 98 68 137 239 78 232 167 182 214 2 137 194 217 195 42 115 74 32 59 5 135 214 24 180 230 171 250 36 145 247 110 1 149 100 6 226 53 242 78 116 132 62 1 212 51 3 125 60 167 225 117 226 78 93 230 29 52 42 76 202 209 167 21 238 38 168 86 157 8 121 189 26 187 32 199 63 194 227 50 31 246 10 182 235 214 230 240 18 30 18 159 172 155 249 
18 25 61 152 225 229 110 134 220 239 162 49 65 203 47 106 50 100 96 36 101 230 196 120 30 219 204 237 90 148 149 247 77 202 3 189 15 133 15 31 147 61 98 248 216 63 34 160 99 83 12 182 236 156 195 28 88 191 103 66 231 72 106 168 175 73 159 158 73 67 148 79 202 74 34 253 244 101 66 142 174 52 34 72 178 213 121 217 134 7 23 154 173 144 192 20 30 221 58 196 
245 233 165 27 105 96 11 201 254 3 56 59 251 78 204 98 31 88 142 183 144 252 3 124 20 54 64 68 131 207 252 181 125 61 233 141 88 197 69 227 92 226 171 176 51 234 48 141 155 239 171 190 94 227 84 112 132 0 145 63 199 103 12 251 71 8 9 172 127 193 247 211 120 202 68 243 60 80 118 80 142 96 120 247 216 7 49 254 101 184 91 13 208 237 147 30 189 17 172 128 
198 158 73 34 185 131 171 14 0 200 199 52 96 116 156 105 231 175 195 175 31 36 72 183 136 169 184 164 69 34 123 18 22 162 100 87 134 212 135 8 102 154 75 192 121 243 192 28 113 34 50 10 26 13 254 68 214 227 164 23 73 1 30 105 85 23 112 250 73 134 129 234 85 13 41 124 66 165 139 25 95 169 165 152 191 58 37 188 161 226 126 254 48 119 60 141 109 67 148 148 
105 97 64 187 183 106 138 240 33 82 166 103 154 140 68 223 116 117 102 40 211 239 111 226 98 76 125 135 68 111 249 172 78 45 109 131 115 249 149 165 127 193 184 14 9 19 56 105 162 132 105 143 83 82 159 74 71 72 139 94 196 226 199 202 96 178 175 75 113 2 115 34 197 187 106 23 147 134 169 190 178 48 213 249 9 83 53 190 71 51 11 26 212 230 37 118 7 184 175 26 
153 205 75 239 89 8 100 137 34 44 190 100 10 65 82 110 221 58 90 198 202 212 168 196 91 193 59 57 171 6 20 248 211 162 70 149 165 112 77 108 157 78 160 229 20 127 138 247 183 78 53 235 56 244 8 99 67 188 50 154 180 101 135 237 7 200 140 155 15 187 205 201 235 52 119 201 55 178 34 155 127 216 239 180 249 91 211 255 115 31 50 34 138 157 176 2 29 136 68 137 
1 176 142 167 246 38 106 150 218 161 197 99 29 32 175 170 117 209 178 161 211 50 98 87 149 118 54 62 253 42 150 232 226 24 53 14 165 108 161 214 103 21 25 85 121 110 158 83 20 30 76 79 75 61 235 195 61 184 194 170 143 246 171 62 26 187 109 6 224 77 69 16 69 214 198 124 124 10 228 58 63 9 75 19 195 135 245 238 235 42 251 76 188 51 171 22 17 97 220 152 
143 18 126 205 220 172 117 221 12 59 168 228 92 92 84 245 35 89 167 95 5 149 138 46 106 43 190 245 46 210 42 203 155 4 115 148 148 95 206 130 18 75 18 219 213 221 18 252 83 251 41 158 245 193 22 88 130 36 10 101 219 213 0 168 234 104 77 237 213 182 120 114 119 128 75 166 16 85 42 48 59 181 164 51 33 118 72 208 237 103 186 237 128 52 6 53 101 137 51 96 
7 122 28 181 33 35 123 205 119 139 71 153 196 207 64 167 243 124 200 160 145 60 244 22 131 181 227 124 244 174 78 118 146 115 97 84 250 123 201 216 112 73 15 64 212 144 36 128 209 154 61 208 88 234 224 102 77 33 63 133 128 30 198 182 222 105 240 86 233 210 94 80 101 85 42 44 84 65 121 73 37 154 79 102 41 187 168 103 70 63 196 86 239 34 194 169 83 36 112 195 
213 110 98 189 189 120 65 101 45 42 102 135 86 66 167 108 235 245 113 161 214 217 24 249 43 2 106 213 90 107 138 163 168 152 252 165 224 122 252 244 69 147 20 196 204 91 237 233 136 225 102 155 102 181 227 118 26 6 231 196 89 8 230 255 73 152 84 146 54 35 2 224 134 196 170 135 239 172 201 230 231 199 172 221 92 157 206 211 166 118 97 254 186 193 43 222 160 182 147 11 
39 59 252 49 215 4 81 89 39 255 225 106 240 239 110 239 34 86 128 26 182 153 255 9 227 95 1 73 149 58 225 153 27 137 145 240 31 157 49 193 220 26 224 125 139 160 210 90 30 171 162 83 49 184 234 111 62 170 18 71 16 107 101 194 122 214 106 36 72 213 113 71 118 198 108 39 160 36 0 165 186 99 220 132 1 27 74 184 49 105 3 224 249 147 72 17 172 234 46 213 
57 245 58 115 93 203 45 113 23 193 33 88 93 69 213 183 13 10 70 106 38 102 127 28 56 248 177 11 25 141 134 11 218 68 179 206 249 241 205 98 216 192 93 251 110 27 54 243 61 205 6 15 132 103 44 4 181 226 201 58 41 135 26 207 19 12 5 223 179 0 241 3 204 105 219 23 87 171 166 65 121 171 179 46 179 53 178 159 89 155 184 37 69 159 145 40 204 147 87 46 
241 191 67 90 217 3 196 51 127 190 206 168 169 238 117 80 27 152 186 246 10 106 165 84 211 159 148 31 237 35 210 68 28 247 107 114 232 216 63 216 78 27 86 48 181 220 115 252 36 87 236 15 177 150 184 80 61 77 202 187 94 2 157 168 157 112 17 80 226 46 117 141 44 140 229 225 133 190 214 186 54 60 239 244 55 104 27 160 233 113 220 4 7 120 226 226 218 242 220 254 
173 78 142 218 129 215 35 196 2 219 197 18 185 13 108 173 130 40 243 204 65 213 113 2 209 207 198 123 61 69 116 131 51 128 177 71 181 197 186 224 18 125 105 141 21 147 10 64 124 30 107 93 171 64 50 190 162 77 115 250 45 48 130 231 90 11 6 93 48 30 79 61 158 234 234 178 178 150 114 183 12 145 168 218 145 121 198 63 100 60 17 231 18 125 174 50 12 57 182 163 
91 170 141 228 143 107 111 10 248 222 75 25 25 203 213 203 90 73 215 141 253 226 199 203 83 242 159 109 48 80 233 162 156 48 25 220 203 72 32 28 80 50 62 111 141 18 24 184 110 120 10 177 87 136 190 45 90 88 254 160 174 153 198 224 92 122 158 45 60 201 38 112 32 91 243 192 79 175 153 42 53 206 9 178 88 117 30 149 142 118 114 209 110 92 118 231 4 78 194 224 
201 54 169 142 209 34 17 20 71 234 129 169 23 19 124 152 234 243 14 139 87 22 164 10 87 225 33 63 250 117 45 252 89 214 208 255 204 77 65 116 93 10 248 187 124 14 10 108 244 72 182 152 29 254 59 82 83 111 237 110 168 183 136 137 214 242 196 74 120 164 42 230 121 89 37 234 204 136 92 53 93 189 63 67 72 247 224 178 74 79 5 254 116 219 123 144 39 210 173 247 
60 241 117 117 131 29 49 189 111 73 26 251 15 154 209 21 64 201 59 48 34 202 143 119 200 171 173 23 52 190 178 142 130 250 201 38 99 159 68 188 205 25 235 198 241 39 147 149 110 60 243 215 196 38 180 95 11 237 199 41 229 254 251 152 177 136 207 3 1 39 132 112 78 192 119 159 235 172 174 75 56 24 177 172 24 171 155 64 165 106 112 203 34 217 177 157 48 99 46 19 
69 252 28 96 91 5 103 141 229 112 74 191 7 36 28 185 6 163 109 161 254 234 81 7 211 153 252 35 105 83 143 94 24 104 50 21 90 177 99 153 199 188 141 122 68 41 221 5 119 84 81 11 126 53 18 228 224 132 3 180 195 32 154 237 96 177 239 21 181 140 18 202 121 216 162 3 85 239 155 152 81 7 112 5 141 18 90 107 49 227 239 215 166 145 246 199 7 32 122 234 
210 94 29 40 228 12 175 226 164 62 255 123 126 5 241 23 147 74 209 162 174 253 231 21 122 112 76 244 243 253 252 27 27 239 43 187 238 160 221 160 151 222 177 181 228 147 253 201 248 165 32 147 64 28 20 244 168 131 67 125 14 144 156 49 246 7 229 140 128 219 83 196 152 150 88 78 109 252 188 164 36 235 239 70 205 134 158 254 150 147 132 105 62 32 131 179 205 109 243 162 
131 6 58 214 14 48 156 79 0 134 85 47 127 228 229 193 62 132 172 187 173 103 182 192 109 247 216 41 7 234 252 5 221 105 185 94 97 114 39 191 132 123 241 242 114 88 171 14 124 94 102 178 85 201 130 139 130 91 196 28 12 70 168 190 120 76 249 229 248 37 158 166 227 33 183 118 99 14 233 53 110 92 245 107 247 127 144 209 101 149 111 19 68 73 161 212 58 247 33 242 
61 17 172 12 4 193 208 66 187 207 70 60 251 198 129 110 249 82 135 154 254 237 0 150 23 186 140 79 13 177 90 14 151 253 247 250 207 162 99 223 227 99 106 45 13 227 49 68 197 10 16 238 53 170 159 45 237 99 20 56 216 196 204 192 110 178 39 119 44 14 153 211 65 146 254 15 139 252 46 116 193 111 210 214 242 22 118 97 46 10 223 150 131 118 158 144 43 249 229 140 
3 75 154 168 63 36 170 235 92 89 160 134 87 72 118 89 29 119 170 185 66 120 149 113 245 16 249 6 52 152 217 64 60 162 141 229 68 224 21 200 106 66 174 2 238 95 163 128 158 22 102 190 145 117 223 209 24 217 4 171 242 87 170 155 191 91 154 19 183 143 232 174 156 255 128 113 237 122 2 82 93 59 208 246 132 201 101 191 211 27 232 6 205 0 0 165 116 190 235 185 
2 249 202 166 218 215 63 91 190 98 58 215 66 46 16 235 129 59 206 66 14 28 204 160 46 89 133 103 68 19 165 95 140 230 100 182 12 20 19 70 200 223 244 23 54 54 79 37 241 148 194 99 177 38 217 255 123 44 223 232 21 161 243 142 189 30 94 233 26 252 35 188 115 185 216 27 31 156 181 43 61 156 235 41 165 127 54 173 30 63 182 48 209 177 251 204 253 104 95 68 
237 216 152 68 39 183 141 234 231 169 105 132 203 27 238 156 208 111 13 50 125 90 179 72 94 139 229 164 180 142 15 209 107 239 153 103 76 162 188 140 116 162 148 187 5 217 118 196 27 64 131 20 2 71 125 55 166 119 218 155 74 86 23 151 125 139 79 171 74 66 12 10 176 210 93 85 82 157 41 170 110 56 194 221 19 205 189 5 143 189 2 59 39 137 31 158 12 242 226 155 
