P2
#imagem2.pgm
100 100
255
157 114 89 163 53 224 172 16 251 168 65 196 196 221 50 130 24 119 230 37 54 72 52 53 87 50 203 184 55 150 209 74 210 15 202 112 107 97 188 42 211 172 144 199 232 230 188 253 92 135 31 57 184 134 44 52 160 133 75 199 88 73 124 0 135 108 62 117 59 86 175 216 46 105 244 204 72 124 219 247 100 139 191 89 87 172 173 220 46 69 196 44 184 125 226 200 69 240 125 90 
172 167 206 68 147 71 53 123 234 136 217 152 185 233 143 44 28 163 253 84 139 219 255 142 95 27 73 203 146 3 78 198 199 60 97 147 138 174 26 123 216 243 252 7 226 11 84 91 14 81 100 197 63 173 193 150 86 12 250 49 249 13 122 97 147 253 176 240 155 6 109 117 26 163 141 109 103 87 217 141 53 159 44 87 208 37 213 236 164 54 61 33 255 118 202 212 24 211 2 129 
79 183 244 16 182 130 211 241 209 55 229 107 154 117 155 49 200 170 2 55 81 131 90 195 46 167 3 199 94 164 161 110 45 41 120 245 182 119 24 188 167 18 63 157 68 188 251 124 175 163 15 31 102 218 152 64 13 6 240 225 110 90 211 224 190 197 192 203 33 105 162 245 113 80 176 202 59 90 146 95 11 122 197 78 234 34 64 192 36 252 88 203 79 219 225 255 136 241 150 59 
0 66 187 197 184 88 0 154 136 57 169 3 102 150 236 105 229 69 154 106 252 242 2 45 9 17 19 242 21 22 192 237 90 233 169 84 2 148 247 183 50 63 135 144 71 95 76 27 96 42 238 103 28 78 183 173 165 226 176 226 237 157 7 136 55 70 180 201 218 107 92 198 65 86 118 45 55 61 172 9 97 185 132 223 12 121 63 246 42 56 2 246 150 236 51 181 160 65 38 77 
197 69 249 114 190 101 188 2 189 152 213 222 243 218 163 249 85 220 98 174 160 250 79 87 154 109 12 27 155 194 69 7 77 138 148 96 176 84 162 56 97 216 144 64 27 117 149 221 126 222 232 126 15 16 224 44 129 135 89 99 51 177 91 32 249 163 246 59 31 11 112 247 171 101 163 216 227 114 160 180 15 230 152 13 128 97 253 158 209 161 228 52 109 246 174 191 81 246 231 169 
20 113 110 102 36 168 214 77 82 185 13 166 145 94 59 4 250 215 237 213 20 37 115 55 83 121 134 13 222 236 47 82 149 112 228 174 83 7 243 71 112 51 36 218 139 173 153 10 134 89 250 248 209 122 207 19 236 35 45 50 39 238 149 224 173 239 25 246 192 235 192 112 70 198 44 121 133 59 122 200 43 208 106 47 145 8 192 113 64 218 234 85 181 98 226 248 97 215 86 103 
244 189 7 109 219 91 111 170 7 112 166 229 241 34 134 164 219 55 14 249 88 135 4 158 14 177 222 68 187 14 227 41 118 227 142 233 56 219 51 150 154 180 228 10 224 56 150 124 55 111 128 82 59 19 196 54 188 68 81 108 194 125 8 99 206 199 30 138 99 44 193 100 197 111 254 223 1 250 226 226 45 24 223 37 241 100 114 69 71 130 3 24 126 12 13 62 133 207 126 248 
102 56 97 61 17 9 186 11 91 80 177 252 70 154 243 25 131 100 86 242 53 210 188 239 248 164 57 225 34 101 120 220 73 229 90 73 5 234 225 55 246 35 77 242 9 93 132 215 248 249 183 102 16 158 67 153 55 43 213 116 45 240 210 222 18 29 246 175 41 122 59 10 219 89 252 237 255 202 90 6 88 13 223 201 95 77 97 191 67 139 41 33 47 216 85 165 203 199 123 152 
5 34 143 45 17 220 7 21 174 71 60 79 172 135 20 66 171 71 222 9 37 170 125 14 175 132 201 218 123 203 50 43 34 72 167 71 160 146 182 145 160 61 244 90 251 79 159 249 123 243 130 30 228 114 25 99 53 94 246 36 43 17 99 145 7 86 73 1 145 101 80 138 93 21 72 206 77 77 200 23 87 187 20 167 136 201 68 73 73 205 163 44 226 128 86 241 60 178 62 3 
235 60 31 39 107 53 1 84 170 105 214 196 199 6 94 75 26 153 72 232 116 57 154 154 168 2 82 116 74 198 77 244 182 254 105 145 84 7 231 147 27 139 19 39 84 61 38 179 161 201 107 103 61 10 161 21 133 126 161 66 184 248 64 125 251 149 119 239 160 241 193 52 167 155 197 105 133 198 53 134 37 65 246 238 45 169 129 69 130 221 137 130 14 178 222 69 193 232 145 106 
213 93 89 222 87 129 53 177 227 10 83 109 175 233 49 167 202 124 2 211 166 5 83 93 213 91 238 245 16 223 254 42 125 178 117 58 50 37 171 40 245 113 71 16 69 169 99 184 159 236 235 103 250 223 70 250 148 90 57 52 240 98 8 86 31 88 222 239 64 111 110 246 67 100 219 22 242 105 213 73 49 98 6 168 132 83 172 130 211 25 135 171 106 89 245 22 68 183 92 166 
137 72 200 66 85 73 213 40 187 17 208 131 10 68 25 63 78 74 203 28 26 255 159 1 133 172 14 148 115 55 182 7 22 150 255 52 180 137 254 237 170 137 154 141 177 251 237 211 96 170 237 241 242 116 75 223 74 68 155 245 52 64 182 185 238 67 92 246 231 141 30 14 198 185 123 144 174 240 74 13 192 93 88 40 226 224 81 237 191 7 228 100 15 58 34 101 25 53 39 173 
118 188 253 50 23 137 189 180 138 138 247 149 120 73 84 234 115 172 122 210 238 222 48 7 141 141 195 178 160 86 168 132 234 125 98 2 166 226 167 32 204 48 190 18 144 88 43 95 43 62 142 55 223 177 201 6 53 161 97 73 138 140 39 161 201 58 23 37 122 170 128 253 252 76 101 45 14 113 35 174 149 255 85 195 153 105 245 138 144 222 196 209 223 193 235 44 158 90 226 68 
155 203 145 114 162 69 181 141 252 123 134 0 54 87 151 31 36 236 253 187 36 173 179 243 167 220 61 78 238 69 140 7 18 43 34 168 71 131 118 218 97 96 154 124 152 175 27 242 136 36 41 192 124 116 247 87 235 197 101 46 67 98 221 21 230 180 122 199 114 110 112 190 70 7 168 75 66 109 170 229 205 248 192 194 29 156 88 164 179 100 171 246 36 27 156 23 31 76 227 246 
172 110 106 223 178 88 247 148 188 251 12 160 252 79 12 232 145 142 158 131 5 161 86 203 26 215 147 180 198 221 163 93 124 235 46 229 173 59 209 128 143 191 9 202 29 19 83 91 95 177 145 155 235 100 176 215 172 255 136 149 226 78 3 37 106 77 130 121 64 152 124 55 66 35 104 11 54 43 222 66 15 108 249 149 108 149 255 66 98 249 68 98 123 135 75 118 254 252 47 67 
113 87 65 224 93 141 243 13 81 127 245 198 41 41 157 24 144 28 140 52 196 46 143 194 154 112 195 119 193 96 253 234 74 96 104 163 104 103 112 117 117 247 223 15 54 79 70 205 96 225 159 212 91 6 48 93 69 241 179 81 58 225 179 23 211 155 57 169 236 24 168 238 171 123 230 68 190 70 188 91 227 204 128 74 174 234 241 220 135 242 98 43 242 232 27 113 19 241 252 26 
113 8 99 30 250 243 80 141 71 117 199 108 34 198 118 191 69 64 152 231 101 91 25 46 111 219 251 161 18 72 248 30 125 159 105 173 106 71 102 19 91 70 47 165 35 181 202 91 169 113 238 37 233 20 32 130 59 36 28 78 216 138 118 219 154 69 129 68 3 95 112 254 129 32 187 176 240 131 197 69 97 230 187 63 26 5 191 78 222 41 70 33 110 157 190 124 79 98 117 139 
206 35 182 118 66 107 53 53 145 22 172 166 245 6 199 220 0 23 62 186 222 84 64 193 219 107 24 39 36 94 11 41 210 124 127 162 36 144 99 219 12 88 202 165 238 56 217 165 164 48 228 240 197 12 212 216 39 218 204 5 162 161 12 199 23 80 21 170 177 245 13 75 107 47 102 107 211 230 187 66 13 57 250 21 26 184 200 11 91 212 33 61 80 147 63 12 166 137 190 183 
113 3 253 45 182 133 199 31 44 119 51 90 67 27 200 84 102 194 229 4 125 64 96 247 183 157 110 161 134 13 195 241 235 34 250 40 243 65 54 234 130 83 10 149 79 188 150 211 48 145 243 107 152 5 210 93 93 37 95 45 191 198 108 127 167 187 203 228 44 75 251 244 91 226 8 157 56 6 172 186 0 141 186 231 177 13 188 148 204 149 219 89 90 154 0 137 45 52 57 10 
104 139 94 100 66 139 244 23 6 224 81 50 94 30 1 33 210 63 105 199 140 83 170 205 94 115 201 57 6 247 12 66 176 233 167 98 188 185 151 174 194 49 207 99 211 172 146 193 2 131 32 28 35 201 148 48 211 56 13 181 185 106 12 51 11 77 29 24 83 209 186 8 115 227 108 116 230 159 51 110 74 193 40 187 27 93 97 42 194 209 21 37 206 247 0 134 129 159 9 172 
142 60 35 205 33 221 113 141 32 95 173 208 176 225 202 205 252 121 216 101 50 37 41 178 205 5 178 226 26 199 179 70 245 98 155 166 212 7 38 216 8 84 200 144 63 204 78 122 76 132 195 134 43 30 144 132 63 251 232 240 223 173 99 15 17 171 233 59 149 73 210 122 38 231 75 86 252 104 252 233 149 230 232 56 181 163 148 194 172 67 107 88 215 57 97 46 105 128 215 51 
107 139 190 158 2 126 0 201 241 158 27 67 94 6 15 33 217 157 123 148 154 68 3 193 10 84 244 204 134 71 43 54 95 181 51 106 37 131 173 146 37 87 245 175 48 78 2 233 158 242 142 35 147 102 119 211 129 228 102 17 238 106 174 238 120 175 119 6 22 92 27 89 160 121 208 86 146 37 136 57 13 139 21 151 30 17 145 55 67 210 253 36 43 79 40 0 190 97 210 155 
93 115 18 197 107 237 245 96 12 243 104 185 44 80 88 24 196 173 23 149 88 7 2 46 197 96 97 23 57 180 142 81 131 46 90 126 141 156 172 244 38 33 107 16 5 41 158 204 11 162 210 148 201 106 188 86 66 3 32 217 242 142 242 79 15 247 186 45 14 109 61 58 105 21 89 230 160 255 49 222 126 89 138 221 157 226 117 197 44 162 47 238 240 217 69 190 137 53 251 122 
247 71 239 91 92 56 250 229 3 184 87 116 162 56 7 24 220 89 115 162 10 164 84 255 59 123 208 197 121 79 229 12 79 20 11 127 136 242 21 179 56 62 89 183 1 168 16 236 143 182 0 22 101 113 88 180 220 94 219 141 104 175 64 140 30 187 217 205 115 172 116 248 71 119 127 206 34 18 111 1 189 225 98 73 196 113 2 180 218 104 173 62 222 188 212 161 108 36 161 110 
167 204 221 93 54 77 16 225 141 220 234 0 110 193 225 98 175 12 28 168 61 131 144 255 97 222 105 244 66 55 171 138 172 188 25 137 15 167 86 26 203 112 74 145 170 64 199 138 174 170 108 55 14 150 202 248 123 125 198 44 167 220 62 72 8 226 240 38 218 108 151 159 99 52 86 91 122 69 90 232 74 179 188 10 84 136 164 82 179 1 180 242 164 251 164 208 69 168 41 217 
157 134 28 152 221 146 216 7 229 185 228 165 10 143 210 200 23 67 102 53 145 211 251 238 64 124 35 75 234 117 142 76 98 220 45 46 194 241 150 60 244 130 171 232 119 166 118 26 95 174 88 200 158 89 99 199 131 71 4 225 128 176 229 39 48 86 17 136 152 184 90 163 174 137 248 218 23 96 114 168 53 177 194 52 97 252 180 38 117 68 143 185 142 195 247 17 16 220 18 208 
234 81 234 228 27 182 18 162 117 38 141 25 160 52 235 160 99 36 181 178 31 92 11 252 156 21 140 179 8 86 118 43 61 35 14 166 67 242 67 106 22 94 142 22 169 31 28 53 42 58 47 20 136 117 194 209 51 14 108 181 35 172 134 195 27 150 144 145 47 35 209 87 132 114 62 70 87 90 157 27 64 164 234 243 184 120 250 97 218 22 94 190 102 199 138 192 11 18 55 78 
230 50 5 147 70 200 101 82 178 206 182 121 45 204 174 248 184 78 252 211 25 149 43 118 219 141 202 74 150 255 202 133 112 8 39 70 228 202 203 225 194 97 175 119 119 24 67 203 143 221 16 80 120 243 155 135 137 231 141 135 66 197 18 221 214 139 127 151 230 222 55 156 144 252 207 63 168 242 112 19 69 15 125 0 128 152 118 150 120 189 29 162 154 204 215 255 31 165 84 175 
213 110 114 42 35 136 95 246 71 193 254 120 227 203 141 10 184 237 132 78 177 248 192 193 35 125 224 147 83 61 240 182 57 225 69 53 131 235 167 199 221 237 182 164 112 248 134 151 168 88 141 84 59 126 191 13 103 62 247 64 123 59 153 211 152 159 117 98 185 15 239 216 241 222 93 60 244 128 177 206 217 66 88 83 30 57 98 173 237 120 226 174 157 134 152 46 124 16 205 91 
204 218 127 81 11 251 190 235 120 74 86 216 210 20 174 241 99 16 240 201 61 148 106 134 196 8 53 240 108 156 20 200 196 54 158 91 180 174 160 87 2 62 189 220 27 52 87 214 17 234 179 139 224 248 87 112 245 168 183 65 241 171 17 80 170 10 150 30 114 95 202 40 157 68 45 3 61 12 27 171 48 177 241 25 93 14 113 19 58 78 104 72 146 165 141 156 133 62 173 193 
208 116 5 7 78 68 240 117 191 2 194 24 201 76 243 155 60 61 128 24 154 226 142 46 215 242 80 84 93 185 44 108 83 86 25 156 31 38 76 89 41 128 19 196 226 163 1 58 6 236 75 38 30 77 114 26 72 250 34 31 58 101 91 73 133 109 206 142 23 210 138 215 4 237 215 88 134 158 98 29 66 133 155 230 204 117 92 53 110 37 203 165 37 41 129 125 237 33 236 133 
62 49 241 25 215 177 214 123 186 37 96 110 120 111 56 0 174 67 147 167 208 220 18 143 37 237 231 51 19 219 58 43 157 41 203 68 42 52 216 214 136 32 65 82 48 18 234 27 204 159 97 151 246 133 193 133 67 153 214 145 128 1 129 37 59 163 94 131 134 221 165 17 247 119 78 243 243 214 121 223 44 114 12 45 105 138 158 46 134 22 148 191 187 253 137 30 33 136 244 252 
113 22 4 211 15 18 207 121 72 35 172 246 216 162 221 147 176 81 114 51 246 74 105 230 76 53 26 188 85 190 211 215 117 71 191 196 217 217 12 12 184 97 76 5 216 25 28 238 83 68 4 59 155 30 159 46 188 19 252 167 225 47 67 61 26 214 156 141 92 181 76 210 202 248 33 183 50 189 17 105 219 201 30 239 126 122 125 190 146 253 246 136 204 193 142 86 231 44 100 214 
161 140 217 246 6 80 243 177 240 120 4 41 207 74 134 247 166 71 74 191 86 93 210 7 31 94 251 73 100 177 222 70 174 72 249 158 244 209 138 158 26 49 60 89 183 46 5 250 27 107 79 88 145 154 86 203 225 237 209 63 25 205 212 134 141 207 245 243 29 228 174 36 182 208 2 31 28 221 99 161 230 208 212 178 202 28 75 125 26 86 89 95 143 233 12 62 70 11 21 28 
8 239 38 235 206 60 158 163 132 191 104 147 14 92 32 244 137 75 120 196 211 129 219 210 77 107 80 21 223 226 160 65 61 92 187 156 105 95 88 14 122 60 220 120 155 249 125 71 86 143 167 73 19 86 158 191 219 189 102 179 98 62 224 140 69 145 53 223 144 32 119 136 131 188 134 250 150 142 49 211 186 80 158 180 226 189 236 79 194 69 22 193 214 6 27 35 167 248 92 91 
74 103 69 56 41 167 47 191 6 3 133 191 60 246 38 172 72 158 11 169 137 109 42 231 68 34 154 46 235 247 247 185 159 28 8 71 243 101 159 111 243 64 193 52 101 233 7 217 78 225 68 247 184 156 104 204 179 121 165 214 154 248 208 160 151 40 9 221 105 94 158 179 101 44 45 89 187 145 9 228 251 110 223 94 216 57 154 25 43 245 131 66 59 98 173 185 59 113 144 32 
20 250 244 51 101 177 17 87 200 87 244 117 88 45 36 8 112 174 134 117 181 125 126 156 86 157 87 172 146 224 229 59 123 162 104 150 250 182 180 85 20 161 143 51 107 6 91 29 8 98 245 137 87 250 220 9 115 17 150 32 164 93 79 84 39 188 196 132 45 36 95 124 37 216 163 199 62 226 203 196 40 189 174 253 27 82 230 179 27 38 49 190 122 209 23 148 158 178 206 167 
5 225 90 244 133 101 248 216 217 167 189 38 89 39 123 120 9 110 228 194 213 68 242 45 27 34 134 34 106 234 79 164 138 214 237 228 188 174 86 15 66 63 121 107 34 8 34 162 40 54 30 94 42 211 159 21 143 58 226 39 18 206 14 38 196 235 96 116 80 29 133 20 131 144 71 186 12 200 108 36 128 146 219 173 161 59 1 32 223 255 115 202 31 196 213 211 188 9 250 206 
203 25 76 142 164 132 111 59 158 207 33 166 25 107 101 218 194 228 224 244 18 91 131 52 24 54 106 83 121 22 4 23 181 9 117 38 171 2 56 24 96 134 9 207 252 167 2 11 21 54 4 57 48 53 88 140 133 139 150 79 3 251 198 122 148 87 198 131 162 241 236 118 218 83 235 72 48 48 251 105 35 154 52 152 66 116 59 251 239 43 33 111 99 161 136 29 242 106 8 78 
144 59 209 128 149 159 145 184 189 236 152 27 115 118 58 184 79 2 116 169 221 126 211 90 160 239 146 40 86 170 2 46 126 199 47 91 24 211 193 200 172 197 32 73 141 51 220 67 95 198 75 189 215 236 116 185 194 204 43 196 73 127 126 204 115 125 80 50 235 85 68 32 4 162 221 29 250 58 227 222 123 168 8 95 101 221 203 51 210 34 157 25 82 81 66 207 119 69 123 43 
151 143 226 103 205 106 21 189 65 242 22 51 169 144 242 185 16 185 161 113 214 216 46 78 249 136 24 224 146 7 247 110 163 231 98 70 15 7 17 81 234 194 63 234 243 102 82 240 95 232 190 26 217 214 39 139 198 140 198 167 205 171 13 36 151 199 142 100 211 96 25 2 126 20 36 171 97 18 112 47 219 210 234 215 224 4 208 250 66 198 20 203 47 25 5 117 252 150 44 106 
32 93 116 247 132 79 143 29 250 125 148 156 10 223 237 80 245 74 112 192 244 156 204 245 193 58 39 136 88 188 5 255 255 230 108 90 132 218 70 232 198 141 6 95 118 120 142 44 31 144 80 8 100 119 180 204 138 244 186 134 54 161 225 204 119 227 71 80 6 31 17 181 205 43 13 161 167 3 150 20 103 190 185 248 27 192 150 249 146 48 8 150 27 173 136 120 144 60 78 3 
147 133 186 44 24 64 243 138 36 234 206 175 211 188 241 184 160 221 56 35 225 215 87 225 145 72 193 172 82 218 201 155 178 116 7 244 174 178 254 65 117 147 251 166 110 114 64 113 123 56 98 243 128 207 240 143 31 218 85 16 198 163 0 63 236 84 194 182 151 107 119 239 34 104 232 160 61 200 240 75 53 55 222 16 118 2 27 199 78 203 13 75 243 128 58 24 200 142 177 25 
220 81 166 187 179 207 92 70 74 167 72 109 85 68 115 36 203 86 32 177 164 131 175 6 226 89 193 78 206 136 157 198 132 78 210 206 177 50 30 64 156 245 143 0 99 198 232 212 135 181 70 118 171 106 3 232 153 23 219 8 134 171 77 100 151 73 68 79 164 248 247 53 59 156 14 43 232 37 6 202 179 6 214 62 235 232 211 154 34 160 209 110 121 95 139 156 30 41 69 103 
18 137 175 205 48 130 13 23 107 200 149 174 87 49 24 48 235 102 229 195 133 222 235 170 46 13 29 22 31 216 27 62 133 77 14 177 130 145 211 235 116 25 93 39 121 29 84 117 51 74 2 12 200 184 112 225 45 27 204 121 165 61 14 251 132 172 220 137 57 175 170 208 139 127 37 222 35 180 210 52 75 254 242 29 245 21 170 62 255 243 96 109 181 64 104 199 152 14 224 252 
94 198 216 238 57 98 183 123 92 221 217 150 188 232 125 157 19 223 223 230 43 251 161 156 89 201 111 201 71 219 227 179 247 189 166 108 5 42 217 165 45 128 179 195 12 114 107 53 43 253 88 4 57 157 87 171 152 192 109 42 28 123 173 86 15 124 92 115 120 64 84 4 156 134 166 226 198 3 131 140 68 87 93 190 178 64 73 69 123 13 168 17 156 86 6 140 171 235 66 42 
24 10 239 65 180 213 251 28 111 2 142 75 102 213 53 60 29 75 64 16 8 153 105 167 81 212 182 253 213 242 160 186 112 241 116 4 122 86 250 152 145 217 85 25 153 95 42 167 2 40 4 180 73 74 247 19 194 94 132 82 148 121 189 74 5 94 169 244 248 241 234 127 179 239 157 159 230 221 130 39 233 62 93 218 70 9 156 126 119 90 57 51 241 104 226 3 97 183 88 186 
53 143 21 248 94 172 49 132 84 55 134 227 91 245 19 42 6 191 158 16 249 50 157 71 242 167 87 13 11 101 71 254 57 22 193 44 25 120 216 113 236 85 126 4 223 181 237 75 145 82 70 240 207 76 120 55 162 30 100 143 139 209 63 103 13 112 55 66 108 187 89 14 181 31 178 177 254 230 180 230 239 172 220 71 129 18 146 170 6 182 81 177 106 98 7 157 184 131 191 99 
223 221 125 2 183 126 105 19 63 240 48 162 41 179 168 60 152 234 179 73 40 85 101 157 47 127 105 73 66 57 160 183 251 70 12 246 250 88 237 82 42 60 41 40 69 81 241 248 155 62 162 188 15 228 233 120 98 146 43 19 180 120 36 101 71 95 206 145 135 151 132 149 71 48 103 31 78 109 1 163 18 117 40 170 195 76 37 109 139 2 22 162 21 42 145 150 76 142 138 124 
101 33 119 4 31 53 177 48 73 238 30 100 133 247 13 188 77 115 97 161 51 55 242 159 109 54 48 113 144 60 10 94 156 224 14 201 57 180 209 3 64 190 145 99 125 44 25 153 180 67 229 63 225 153 135 177 196 132 73 31 157 210 20 224 53 186 144 9 29 19 141 63 58 196 162 201 130 124 19 233 0 163 248 109 30 144 156 129 35 252 36 199 251 182 113 170 55 153 71 239 
84 188 174 140 64 232 152 190 26 79 197 86 57 122 228 83 113 132 251 182 145 134 8 146 48 82 233 99 170 100 121 160 101 21 252 148 89 18 189 105 207 13 245 134 104 178 239 27 98 221 106 249 23 10 63 168 198 13 67 179 150 3 111 71 216 136 62 252 141 42 87 243 40 30 108 33 149 50 98 234 121 3 178 242 188 112 15 48 69 78 73 68 4 93 113 10 54 123 62 111 
228 24 175 131 173 234 242 208 198 226 133 235 63 94 155 72 136 160 193 82 51 127 193 187 251 92 198 17 6 88 194 147 103 196 13 66 231 218 79 59 5 170 159 67 59 86 236 164 131 130 156 56 26 7 116 195 132 231 184 133 208 134 147 16 29 23 184 88 93 84 74 9 89 114 250 29 246 84 111 173 182 255 234 7 129 78 42 2 166 230 141 142 29 109 121 143 15 247 250 236 
151 193 172 226 203 34 220 159 246 190 234 12 40 253 241 234 241 188 170 32 105 66 142 83 115 117 59 184 67 77 25 38 30 138 61 112 97 162 142 241 197 254 38 104 225 101 251 7 241 185 190 198 213 225 3 253 93 6 163 50 195 2 94 47 121 21 197 88 37 218 88 60 235 122 235 106 234 32 78 134 9 173 44 156 243 172 52 179 96 136 119 166 151 252 17 47 48 204 12 69 
31 179 129 168 238 156 0 186 74 21 50 144 193 0 189 73 202 139 104 158 6 99 128 187 197 37 122 77 204 22 217 221 86 19 83 92 88 203 47 255 9 43 241 77 162 26 57 118 98 103 233 230 214 255 134 26 87 100 225 178 212 90 246 200 210 228 20 129 176 110 62 225 48 76 210 228 51 99 104 202 196 38 253 178 88 197 81 106 84 160 141 134 208 2 41 175 155 12 13 62 
127 239 246 10 198 95 28 125 252 68 18 238 247 178 237 42 21 27 168 84 197 195 199 240 73 117 59 58 186 117 134 188 76 181 31 31 211 75 24 66 134 35 254 137 3 241 1 120 148 106 84 128 177 180 215 24 198 27 244 16 54 5 198 34 159 40 129 203 96 250 14 89 88 105 245 68 241 205 128 193 93 27 30 149 32 91 5 39 207 92 27 218 23 166 23 153 0 176 227 180 
115 83 69 234 251 127 191 199 200 45 180 48 249 148 203 60 27 160 153 69 236 160 122 63 101 63 191 73 248 181 15 130 23 62 7 30 245 203 36 185 144 248 227 234 239 63 38 28 168 107 218 153 166 79 215 232 41 183 7 89 14 159 203 222 81 163 154 28 208 183 236 194 82 24 86 26 199 131 246 222 210 164 17 76 132 209 251 124 107 248 55 242 203 214 224 112 43 106 71 13 
19 170 222 139 21 116 85 230 10 199 2 41 158 51 134 133 15 142 174 164 49 233 151 59 182 194 22 223 172 124 86 25 71 12 195 188 225 244 39 118 63 117 19 166 22 0 129 109 205 239 183 8 133 114 111 93 87 204 52 211 220 191 15 103 243 68 99 253 190 128 22 243 238 244 241 252 65 244 74 44 72 90 224 79 110 123 6 127 54 90 4 246 196 28 186 32 159 188 134 244 
181 0 104 133 160 172 100 212 39 245 40 233 8 56 239 34 245 236 165 202 220 214 76 237 107 123 158 107 212 219 244 76 205 92 102 83 219 5 52 214 209 236 101 205 147 242 173 40 32 173 148 102 208 166 213 99 218 197 4 113 24 9 116 171 15 124 88 134 42 103 40 169 70 194 71 255 115 238 226 10 249 167 27 122 154 52 103 254 23 224 52 90 246 174 208 186 129 73 134 69 
18 58 10 246 142 93 23 167 48 150 86 111 136 192 130 46 195 230 202 102 44 182 118 77 243 50 206 32 45 169 55 185 29 230 160 100 178 167 28 239 80 81 208 0 212 225 16 171 210 38 197 68 32 46 18 114 153 254 55 133 27 133 181 10 210 211 179 156 185 135 160 253 93 134 26 101 229 243 14 25 79 91 33 64 252 47 79 242 111 120 210 147 82 198 70 95 185 105 10 69 
171 228 233 249 223 159 250 69 195 220 196 160 194 236 166 1 199 163 119 245 253 9 105 240 218 82 51 224 91 17 111 8 145 168 64 12 92 3 57 72 119 134 122 102 180 67 28 48 137 113 208 162 204 25 194 68 187 19 196 183 63 49 168 141 114 186 237 94 94 26 159 23 8 215 120 150 173 199 75 116 75 129 163 34 99 17 167 56 253 240 64 9 238 51 126 123 86 2 56 22 
108 76 243 90 126 185 5 86 51 224 251 118 20 187 55 157 74 87 222 115 169 208 241 1 238 125 185 123 69 104 105 92 15 1 255 184 225 19 107 206 208 246 243 222 236 7 214 58 10 85 47 158 199 157 29 196 201 121 33 52 72 212 199 90 205 161 137 218 58 204 240 40 11 113 252 83 219 77 198 33 42 114 100 97 93 62 13 125 6 141 125 79 102 46 155 53 49 148 90 104 
144 206 221 137 108 186 222 125 234 117 80 123 50 21 67 99 117 155 9 82 46 35 151 115 168 94 45 24 192 66 58 9 236 0 122 27 124 55 97 5 32 103 188 112 171 168 150 77 22 156 88 107 200 162 53 73 20 76 197 41 4 20 240 101 85 74 14 6 194 81 76 147 134 11 82 39 28 146 35 198 73 41 68 241 92 114 32 120 181 225 171 144 132 112 70 37 211 148 227 114 
199 112 105 206 34 73 90 201 13 59 179 119 21 42 19 12 115 251 32 169 144 3 38 118 200 191 2 241 110 198 63 134 17 253 126 95 254 10 27 125 6 11 13 8 130 135 14 227 148 164 253 132 175 155 128 3 89 106 237 112 47 201 107 106 42 94 84 237 34 52 222 108 144 106 251 32 152 40 125 159 71 215 126 176 25 146 255 94 190 215 207 75 29 131 175 71 154 253 179 33 
148 177 235 189 50 192 67 103 96 245 168 103 20 252 108 214 214 206 236 176 127 112 112 42 65 221 82 69 231 65 99 163 94 103 138 153 117 117 174 135 225 215 214 100 132 121 143 157 239 57 143 32 37 156 151 179 161 191 158 139 155 145 43 26 136 64 3 40 224 241 4 37 35 180 81 190 30 183 175 174 107 186 47 215 55 194 14 145 71 18 217 66 61 87 212 47 24 35 157 145 
251 156 13 236 47 118 95 156 106 30 148 176 82 56 21 252 61 76 155 106 59 188 76 145 86 250 39 137 24 247 161 253 78 223 144 129 12 3 73 38 241 23 5 76 172 157 138 184 191 161 7 231 131 167 63 161 109 226 233 209 143 166 87 147 98 32 87 143 194 69 87 134 58 8 204 42 130 208 212 51 70 41 25 175 41 185 249 153 10 119 229 174 134 23 7 124 190 200 40 188 
90 34 208 225 206 90 175 241 219 185 59 148 89 76 155 107 53 220 196 162 182 32 226 201 4 50 249 223 234 64 204 176 219 132 254 98 51 118 119 74 192 64 9 4 129 114 83 194 173 247 230 228 247 72 167 201 17 223 117 229 111 239 11 20 77 82 39 46 243 194 236 220 56 77 132 170 69 3 11 93 155 242 168 134 88 84 253 87 181 6 194 182 212 60 172 144 185 116 148 112 
150 168 213 80 75 200 246 175 45 103 137 227 6 181 82 177 94 173 172 27 249 143 41 121 161 145 121 203 38 209 141 78 162 143 251 77 1 153 165 58 193 6 150 253 247 39 44 140 147 187 124 188 228 98 242 87 95 85 56 110 156 83 89 240 161 223 39 124 99 168 218 116 138 73 249 83 117 50 126 64 126 230 53 227 127 104 101 119 149 239 178 32 35 225 66 127 26 255 31 132 
120 221 220 132 15 150 124 140 136 189 143 244 167 151 158 55 209 135 201 2 203 201 175 138 196 99 142 35 150 89 171 15 73 33 245 147 216 86 229 80 56 177 168 209 151 52 128 97 226 168 104 31 137 74 247 84 134 194 134 3 156 84 149 194 220 90 107 201 110 242 253 73 142 244 17 255 213 39 163 8 186 180 136 247 88 218 81 37 114 228 114 72 180 88 164 71 59 114 135 77 
88 208 140 29 145 111 18 165 233 214 207 213 98 145 114 177 191 225 134 165 142 178 154 25 102 205 159 70 110 79 145 72 30 90 90 116 74 10 243 235 92 171 204 111 225 41 110 118 71 199 95 125 228 20 69 159 59 28 79 102 123 219 209 225 73 247 46 247 191 174 251 250 181 12 97 128 63 98 195 110 118 245 161 85 124 243 189 2 186 171 124 80 108 252 142 65 96 14 209 77 
250 65 115 250 124 99 88 173 132 38 187 192 215 209 23 212 92 53 72 105 108 227 237 172 73 156 18 143 235 9 12 31 3 172 163 19 58 23 119 160 185 92 156 149 239 196 136 163 142 196 47 252 215 44 108 33 24 162 163 244 115 79 165 21 224 216 211 107 117 144 135 1 230 236 175 20 72 55 187 106 26 134 186 229 133 239 191 87 227 246 138 152 127 72 100 214 155 172 75 45 
184 54 79 119 17 189 60 102 105 144 121 208 6 101 48 73 254 146 175 247 177 128 15 162 151 92 19 11 60 15 82 127 136 113 153 171 68 185 139 178 218 57 138 125 92 72 219 83 200 127 4 169 139 40 121 59 67 243 120 91 201 235 50 137 111 169 43 69 134 199 227 33 36 152 182 26 36 22 1 40 109 28 134 20 120 214 18 138 12 117 93 111 76 39 49 116 244 70 206 236 
224 207 142 219 206 23 197 79 100 185 235 243 117 211 253 225 128 114 32 184 121 74 136 238 204 171 152 104 160 176 74 72 88 186 210 7 96 28 126 195 38 24 225 218 102 11 48 183 171 228 236 236 19 218 193 129 82 95 175 140 249 79 103 2 249 110 248 205 98 17 170 31 113 27 42 5 202 43 232 63 2 20 190 79 96 142 210 208 229 43 189 9 137 140 237 194 200 212 71 86 
93 93 17 10 78 170 16 157 40 157 237 33 140 234 222 9 234 204 130 130 141 247 12 7 216 205 163 47 207 212 9 202 217 104 123 45 195 173 217 202 9 200 7 4 81 79 147 65 57 253 152 64 82 171 226 173 108 123 82 242 21 87 132 81 92 154 176 47 219 12 206 179 244 20 254 144 90 41 38 31 211 138 221 177 61 47 136 35 207 255 194 179 162 67 2 17 112 91 119 186 
155 175 55 129 113 233 153 110 174 98 223 204 66 217 25 126 85 107 70 146 137 191 187 25 127 130 201 53 156 19 154 115 13 127 92 91 8 175 161 70 85 224 6 112 14 84 19 78 163 71 99 34 32 37 5 204 179 250 33 227 105 42 223 4 56 98 132 106 66 206 223 191 88 141 227 50 189 98 149 202 45 172 41 250 30 152 103 117 70 149 84 67 93 8 15 21 36 65 249 214 
166 174 24 130 190 79 190 59 217 106 101 154 253 128 222 67 11 127 171 188 65 57 169 127 2 21 242 77 218 5 1 198 189 184 23 55 143 16 222 179 234 214 76 101 27 173 203 36 109 68 151 72 171 208 103 188 224 186 79 85 97 148 229 98 13 82 163 133 212 183 140 193 118 13 18 211 141 25 56 198 206 78 244 194 140 65 215 37 125 93 239 212 193 216 237 212 32 229 131 20 
148 44 16 141 7 119 127 141 93 174 108 80 181 5 137 209 236 116 65 223 99 104 155 115 3 184 96 65 126 218 128 141 215 87 178 64 36 124 91 59 147 82 177 235 171 209 32 30 212 81 237 21 26 65 25 218 46 27 136 212 173 151 98 152 165 32 186 2 86 132 109 133 53 239 77 191 55 26 127 80 75 192 34 237 40 82 49 176 74 235 171 178 55 134 241 220 7 111 111 250 
35 247 126 17 77 108 137 243 225 72 111 16 90 169 41 143 23 1 173 158 96 15 18 6 164 14 244 2 4 44 26 81 22 61 86 138 226 177 173 176 49 195 184 6 8 244 74 36 111 184 84 75 118 111 5 246 122 150 53 177 165 63 3 46 180 190 189 150 253 166 1 29 176 244 34 217 93 137 205 212 182 222 237 96 151 243 203 170 67 136 122 146 241 144 114 186 135 227 123 221 
165 51 205 99 229 65 117 50 97 80 250 198 118 218 65 132 200 131 174 75 134 75 140 77 240 7 175 29 22 18 87 8 226 64 88 169 88 19 120 184 29 50 25 35 54 22 24 96 19 7 244 1 204 71 51 137 170 141 1 126 233 180 27 191 188 181 235 24 146 211 244 20 152 21 113 18 127 249 57 155 127 103 230 243 156 228 54 238 40 8 178 5 137 50 141 169 60 122 206 216 
26 231 178 237 218 227 75 188 216 235 110 222 20 139 204 74 126 138 95 37 113 98 8 220 125 242 118 111 105 119 73 16 120 185 119 236 236 130 239 73 201 84 125 209 219 91 238 45 250 161 116 214 141 129 76 40 77 94 157 185 76 149 164 232 53 175 14 185 213 220 165 224 218 157 47 27 219 192 147 197 153 145 62 169 133 79 197 20 130 221 204 46 235 186 38 137 216 51 62 251 
157 215 181 169 148 44 76 101 29 160 5 58 226 194 133 68 96 178 189 197 163 214 201 118 80 207 24 27 233 172 206 90 77 93 102 205 126 106 156 86 167 229 138 179 94 157 17 82 38 148 122 102 56 179 93 58 131 189 194 197 241 130 135 128 236 85 2 116 33 191 230 151 131 117 107 88 147 136 169 121 223 220 69 29 201 219 80 34 138 106 108 176 119 28 49 18 130 166 207 197 
3 148 244 207 185 58 240 82 11 236 23 97 148 114 102 18 223 182 106 213 111 192 94 4 3 228 148 187 24 58 22 233 174 79 140 167 79 26 96 201 78 50 33 179 77 62 37 111 1 172 115 252 58 166 223 232 29 65 119 33 180 248 30 8 170 90 119 199 79 255 5 228 226 192 144 23 16 39 202 89 184 37 50 62 241 3 57 132 78 155 163 236 97 200 49 72 125 27 125 214 
192 208 37 204 81 0 43 52 231 24 156 250 139 137 112 68 158 193 178 1 29 91 225 197 36 146 149 212 177 252 101 125 171 117 9 169 35 88 188 179 217 246 228 122 2 64 245 181 72 199 147 135 19 231 247 84 7 62 147 210 206 99 249 99 23 213 249 162 222 50 9 59 238 170 235 1 165 178 137 58 248 253 36 61 182 168 173 64 17 181 115 107 90 186 255 49 12 218 60 223 
12 245 220 117 47 28 246 182 253 72 244 123 181 75 172 76 145 6 205 49 74 221 125 198 223 104 64 142 147 107 28 137 52 9 251 9 163 52 80 193 145 104 253 31 135 153 117 220 41 106 29 209 187 159 249 12 228 213 132 35 178 112 223 200 223 214 46 158 83 219 64 75 233 123 110 207 118 207 197 20 8 58 103 197 107 228 46 100 242 105 147 151 115 210 206 195 148 196 63 220 
69 247 13 124 142 234 13 50 139 213 229 28 181 224 113 184 98 146 101 247 144 140 52 147 222 119 49 163 219 59 244 109 131 113 0 123 7 28 163 241 205 147 29 29 184 194 4 80 169 146 230 236 70 166 49 191 250 72 80 143 60 163 23 246 21 50 97 113 220 120 247 179 69 242 180 63 154 74 231 53 71 205 249 108 156 31 80 194 207 45 114 176 64 100 110 34 1 33 120 133 
150 104 211 33 249 216 244 169 226 222 228 16 68 42 230 159 27 95 90 69 101 15 225 46 110 230 194 150 81 37 140 224 188 82 253 226 243 46 35 132 24 232 193 137 169 144 244 172 74 206 22 239 197 212 227 48 79 145 218 253 13 40 230 169 214 160 62 159 59 221 138 247 196 207 71 71 125 233 108 188 177 213 78 105 246 102 193 222 105 206 128 253 59 17 207 9 109 185 94 0 
215 204 113 43 111 251 62 243 200 28 150 246 217 218 200 90 0 171 195 97 71 3 122 62 229 200 141 40 8 5 37 172 209 226 31 71 160 212 110 52 147 17 186 131 73 71 77 107 236 141 48 225 110 154 145 105 18 52 104 45 47 236 91 76 49 9 222 116 224 194 158 179 229 176 32 138 137 130 165 68 193 243 82 133 104 249 141 38 203 63 170 64 106 214 199 135 253 40 244 218 
182 45 152 24 198 225 16 52 34 245 152 140 135 196 111 118 187 138 54 28 23 208 153 139 66 43 50 6 63 38 170 160 170 125 34 10 62 140 209 169 155 6 238 235 70 234 208 220 242 179 84 244 254 208 127 51 62 83 100 113 254 237 72 239 68 26 5 49 86 153 172 16 124 31 110 11 7 76 189 222 146 222 174 86 136 37 162 99 231 183 37 111 67 100 22 238 13 108 9 54 
21 240 233 145 78 167 226 145 209 210 125 164 37 114 13 232 190 184 75 65 195 189 61 168 21 115 92 198 140 220 245 193 132 121 208 86 152 6 16 40 173 100 90 87 51 215 57 85 167 113 193 245 92 206 115 197 124 2 97 158 73 208 147 121 169 29 168 132 226 163 192 118 162 234 154 31 66 116 250 67 75 56 78 168 58 83 144 110 128 249 110 159 205 177 169 7 142 194 187 70 
181 232 188 35 184 76 134 35 220 179 24 91 179 246 56 130 227 178 93 74 42 64 203 240 159 232 0 18 59 81 79 194 151 60 203 216 247 114 102 140 136 251 90 68 230 145 200 170 225 85 159 2 129 192 192 187 72 219 96 67 182 179 173 32 19 7 180 61 104 69 130 129 207 181 137 166 236 243 70 73 188 162 33 61 141 95 149 37 78 244 144 66 9 206 29 137 174 178 64 249 
18 171 33 43 55 71 109 43 206 2 250 134 250 3 170 164 87 6 145 88 59 154 90 182 60 140 230 37 242 163 55 181 254 141 141 178 74 26 206 121 147 168 43 138 37 223 1 223 230 158 253 124 150 52 132 72 85 212 82 27 102 67 97 24 50 212 12 61 144 150 116 56 67 204 35 124 196 157 239 149 67 13 33 184 232 44 215 159 94 141 167 148 146 250 133 203 184 102 231 244 
144 35 39 17 231 86 40 133 96 167 60 110 116 61 69 53 184 233 27 100 94 161 46 183 255 49 109 117 152 45 102 0 210 42 174 171 134 45 131 205 128 100 176 20 131 20 177 27 142 211 24 62 94 247 47 173 52 78 223 191 216 16 208 137 222 17 210 176 40 59 124 123 172 60 18 44 119 124 172 145 242 82 149 214 101 119 242 157 185 187 164 80 130 246 111 182 61 66 91 197 
213 103 90 184 109 151 44 97 89 92 128 191 109 206 92 211 123 9 190 176 23 222 132 210 157 201 137 176 118 35 17 148 150 153 103 171 73 221 196 88 48 155 115 206 134 175 51 222 168 149 221 13 213 33 70 234 50 112 103 159 17 30 187 197 114 185 233 125 202 118 163 188 4 35 206 230 198 93 227 159 245 3 149 222 123 235 180 66 72 211 81 170 150 154 35 0 114 176 41 85 
120 203 145 51 222 219 217 46 180 65 52 189 105 59 47 72 146 163 148 130 231 218 142 249 142 255 15 236 157 100 111 92 218 66 86 101 197 171 219 207 216 193 237 225 13 38 242 117 161 179 175 82 23 109 104 181 129 180 72 49 251 190 3 185 120 68 185 252 193 123 30 241 186 70 216 178 231 170 40 141 48 130 205 88 225 116 37 6 245 35 150 120 148 166 44 149 218 58 131 157 
218 51 232 186 227 57 187 217 2 176 23 183 199 120 182 63 76 215 14 19 116 179 192 105 113 5 51 24 137 138 124 242 25 188 130 85 218 0 95 253 99 33 9 28 239 253 49 173 97 126 107 5 133 204 144 171 153 193 96 105 12 158 108 163 133 252 52 232 39 5 140 199 20 227 68 228 47 121 7 75 39 81 132 3 177 214 204 231 20 196 251 177 235 220 27 88 38 220 69 156 
83 174 9 222 28 224 17 54 16 84 0 192 166 57 160 54 126 57 61 196 235 244 76 23 175 174 81 184 5 68 255 152 229 101 160 236 131 254 183 58 25 246 228 180 230 28 9 198 118 94 171 235 37 59 155 196 223 123 213 107 41 29 168 5 101 145 23 150 81 39 128 26 210 200 123 209 240 228 5 218 33 171 222 3 202 128 47 224 3 170 112 26 155 77 137 10 91 153 55 134 
143 66 178 251 195 48 141 188 203 119 221 154 6 137 157 181 227 171 81 146 163 165 234 109 97 190 234 208 80 231 200 100 69 55 150 8 117 151 225 32 127 191 217 47 173 97 177 169 118 163 73 2 72 211 11 11 133 86 19 126 204 226 146 215 121 238 116 102 111 102 64 163 21 162 64 193 158 153 227 134 142 82 95 89 121 156 154 157 14 255 75 61 85 242 92 136 53 78 148 64 
57 3 114 237 148 10 92 119 98 155 249 244 48 159 219 191 191 104 97 202 5 160 219 53 117 127 240 31 128 65 61 188 92 216 63 167 4 222 115 122 128 205 187 157 102 114 4 91 161 159 38 59 113 33 11 141 179 241 20 67 99 175 184 2 95 75 111 121 109 6 206 242 128 153 243 38 55 179 35 86 167 169 178 151 90 105 35 110 151 177 145 156 228 126 78 59 202 198 201 10 
216 105 181 6 235 102 103 58 172 74 128 215 89 239 205 135 201 98 107 255 170 37 47 211 14 151 68 143 38 176 22 3 76 241 111 222 71 155 224 127 203 32 99 7 64 215 62 179 196 243 43 105 115 182 181 144 230 226 229 37 249 113 30 11 210 133 70 163 31 162 38 157 158 27 20 14 227 202 207 194 86 4 170 211 123 204 237 122 118 71 120 38 206 113 169 203 113 13 128 125 
248 226 1 61 45 36 218 19 202 49 70 93 132 126 49 102 72 208 157 58 197 175 68 185 42 23 127 235 49 114 102 147 92 195 57 7 126 36 255 62 126 114 108 43 88 71 8 73 100 40 142 120 219 0 146 7 151 205 103 18 26 154 64 14 210 173 149 162 156 1 201 184 134 247 9 213 217 72 119 165 87 62 136 219 193 36 170 56 156 251 43 232 53 110 86 21 227 8 223 183 
140 165 129 169 106 38 229 2 15 105 198 162 167 121 83 11 126 1 212 115 194 7 145 23 137 214 239 209 21 60 221 237 87 246 110 57 179 105 199 91 3 147 60 103 222 64 182 177 26 129 88 224 143 90 98 68 30 187 85 106 243 177 88 237 6 222 218 142 232 39 121 135 188 172 34 29 131 253 122 117 158 139 125 168 141 92 101 25 253 3 206 7 2 208 23 94 161 68 11 211 
